{"accessors" : [{"bufferView" : 0, "byteOffset" : 0, "componentType" : 5125, "count" : 4257846, "type" : "SCALAR", "max" : [4145759], "min" : [0]}, {"bufferView" : 1, "byteOffset" : 0, "componentType" : 5126, "count" : 4145760, "type" : "VEC3", "max" : [10.5372076034546, 15.0181884765625, -23.6235771179199], "min" : [-9.67729377746582, -13.4537000656128, -49.0507431030273]}, {"bufferView" : 1, "byteOffset" : 12, "componentType" : 5126, "count" : 4145760, "type" : "VEC3", "max" : [1.00000441074371, 1.00000441074371, 1.00000441074371], "min" : [-1.00000441074371, -1.00000441074371, -1.00000441074371]}], "asset" : {"generator" : "Aspose.3D 20.2.1", "version" : "2.0"}, "buffers" : [{"uri" : "buffer.bin", "byteLength" : 116529632}], "bufferViews" : [{"buffer" : 0, "byteOffset" : 0, "byteLength" : 17031384, "target" : 34963}, {"buffer" : 0, "byteOffset" : 17031388, "byteLength" : 99498240, "byteStride" : 24, "target" : 34962}], "meshes" : [{"primitives" : [{"attributes" : {"POSITION" : 1, "NORMAL" : 2}, "indices" : 0, "mode" : 4}]}], "nodes" : [{"mesh" : 0, "name" : ""}], "scene" : 0, "scenes" : [{"nodes" : [0]}]}