{"accessors" : [{"bufferView" : 0, "byteOffset" : 0, "componentType" : 5125, "count" : 227004, "type" : "SCALAR", "max" : [147037], "min" : [0]}, {"bufferView" : 1, "byteOffset" : 0, "componentType" : 5126, "count" : 147038, "type" : "VEC3", "max" : [-448.062683105469, -278.163543701172, -337.205749511719], "min" : [-471.496643066406, -314.680755615234, -360.724639892578]}, {"bufferView" : 1, "byteOffset" : 12, "componentType" : 5126, "count" : 147038, "type" : "VEC3", "max" : [1.00000417232513, 0.999989092350006, 1.0000022649765], "min" : [-1.0000034570694, -0.999987423419952, -1.00000011920929]}], "asset" : {"generator" : "Aspose.3D 20.2.1", "version" : "2.0"}, "buffers" : [{"uri" : "buffer.bin", "byteLength" : 4436936}], "bufferViews" : [{"buffer" : 0, "byteOffset" : 0, "byteLength" : 908016, "target" : 34963}, {"buffer" : 0, "byteOffset" : 908020, "byteLength" : 3528912, "byteStride" : 24, "target" : 34962}], "meshes" : [{"primitives" : [{"attributes" : {"POSITION" : 1, "NORMAL" : 2}, "indices" : 0, "mode" : 4}]}], "nodes" : [{"mesh" : 0, "name" : ""}], "scene" : 0, "scenes" : [{"nodes" : [0]}]}